<?xml version="1.0" encoding="UTF-8"?>
<svg xmlns="http://www.w3.org/2000/svg" id="Layer_1" data-name="Layer 1" viewBox="0 0 510.63 322.3">
  <defs>
    <style>
      .cls-1, .cls-2 {
        fill: #6a50fc;
      }

      .cls-3 {
        fill: none;
        stroke: #6a50fc;
        stroke-miterlimit: 10;
      }

      .cls-2 {
        font-family: MyriadPro-Regular, 'Myriad Pro';
        font-size: 18.79px;
      }

      .cls-2, .cls-4 {
        isolation: isolate;
      }
    </style>
  </defs>
  <g>
    <path class="cls-1" d="m151.04,180.87c-.96-2.04-3.61-2.58-5.24-1.03-7.02,6.63-13.44,13.26-20.83,18.49-7.69,5.46-16.47,10.06-25.45,12.87-11.58,3.61-20.51-2.08-23.96-13.81-1.55-5.3-2.41-10.81-3.39-16.54-.41-2.43-3.26-3.55-5.23-2.06-4.88,3.68-9.6,7.44-14.88,10.07-8.05,4-16.68,7.48-25.45,9.22-15.29,3.02-25.39-5.28-26.35-20.97-1.43-23.59,2.95-46.59,13.28-67.52,8.58-17.38,20.36-33.22,31.15-49.44,3.54-5.31,8.53-9.67,15.83-5.76,6.18,3.3,9.21,11.04,6.05,18.29-3.41,7.82-7.59,15.41-12.33,22.51-12.2,18.23-20.94,37.74-23.95,59.61,0,.02,0,.03,0,.05-.35,2.7,2.67,4.53,5,3.13.81-.48,1.57-.98,2.29-1.53,25.09-19.22,43.38-44.16,59.11-71.13,5.1-8.74,8.93-18.21,13.47-27.29,1.74-3.48,3.62-6.94,5.82-10.15,3.41-4.97,8.21-7.67,14.15-5.25,5.62,2.29,8.47,7.2,7.74,13.2-.72,5.89-1.84,11.88-3.88,17.42-9.25,25.15-19,50.12-28.32,75.25-2.73,7.35-5.46,14.83-4.2,23.29.36,2.44,3.2,3.6,5.2,2.16,21.02-15.09,37.66-32.6,42.42-59.75,6.3-35.86,20.65-68.26,45.87-95.03,4.79-5.09,11.32-9.37,17.88-11.81,12.62-4.7,23.6,2.77,25.42,16.21,4.62,34.01-5.68,63.94-26.24,90.49-6.63,8.56-15.48,15.39-23.2,23.12-4.03,4.04-8.16,8.06-11.64,12.57-4.3,5.56-4.64,11.76.4,17.09,4.9,5.19,11.43,5.76,17.18,2.27,4.72-2.86,9.58-6.81,12.27-11.48,19.5-33.82,38.28-68.06,57.73-101.9,5.68-9.89,12.51-19.18,19.44-28.27,4.03-5.29,9.47-9.52,16.84-5.53,5.39,2.91,7.67,10.79,4.29,18.11-7.2,15.58-15.19,30.81-22.7,46.25-5.13,10.55-8.79,21.51-10.09,34.29-.29,2.83,3,4.62,5.27,2.9,2.76-2.09,5.25-4,7.61-6.08,26.19-23.08,44.64-51.31,56.34-84.18,2.39-6.73,5.84-13.34,10-19.13,3.98-5.53,10.36-7.12,16.76-3.76,6.41,3.37,7.22,9.51,5.38,15.63-8.78,29.14-17.86,58.18-26.85,87.25-1.35,4.39-2.76,8.76-4.35,13.72-.87,2.71,1.87,5.18,4.47,4.01,6.67-2.99,12.53-5.62,18.41-8.2,31.55-13.81,63.71-25.81,97.9-31.18,12.85-2.02,25.88-3.15,38.87-3.86,2.21-.12,4.51,1.51,6.81,3.04,1.39.92,1.84,2.74,1.1,4.23-1.5,3.02-2.9,6.29-5.23,7.24-12.03,4.88-24.81,7.88-36.87,12.68-43.01,17.1-85.83,34.69-128.77,51.99-10.28,4.14-16.83,11.49-21.5,21.44-16.71,35.58-36.48,69.21-65.19,96.69-15.96,15.28-33.82,28.01-55.11,34.64-7.48,2.33-16.03,3.22-23.77,2.26-14.71-1.82-22.69-16.06-19.42-31.94,3.52-17.12,12.43-31.41,23.68-44.31,29.9-34.29,66.67-59.7,106.32-81.22,7.46-4.05,14.21-8.54,18.97-15.6,1.99-2.96-1.53-6.54-4.52-4.59-15.58,10.19-31.04,16.48-48.32,2.08-1.58-1.32-3.98-.92-4.99.89-4.1,7.33-8.02,14.57-12.36,21.54-6.98,11.19-15.98,20.3-27.44,27.28-16.56,10.07-43.6,8.31-54.72-15.15v-.02Zm124.16,28.88c1.83-2.9-1.5-6.33-4.45-4.58-21.57,12.75-54.26,38.81-65.93,53.42-5.99,7.49-11.45,15.48-16.43,23.67-.96,1.59-.78,3.88-.57,6.18.15,1.76,1.67,3.07,3.44,3,2.19-.09,4.36-.22,6.04-1.19,33.32-19.35,57.19-47.55,77.91-80.5h0Zm-94.08-105.09c15.84-15.61,27.81-42.72,26.87-60.26-.15-2.87-3.71-4.17-5.69-2.08-15.87,16.73-25.28,35.93-26.75,59.72-.19,3.02,3.42,4.74,5.58,2.62Z"></path>
    <path class="cls-1" d="m60.56,34.46c-9.41,0-16.57-7.38-16.51-17.02C44.12,7.91,51.59.03,60.55.04c8.99,0,16.47,7.9,16.48,17.39.02,9.74-7.04,17.03-16.47,17.02Z"></path>
    <path class="cls-1" d="m134.01,34.41c-9.49-.04-16.52-7.28-16.5-17,.02-9.42,7.59-17.41,16.47-17.41s16.52,7.99,16.57,17.38c.04,9.62-7.19,17.06-16.54,17.03h0Z"></path>
  </g>
  <circle class="cls-3" cx="352.69" cy="199.61" r="11.81"></circle>
  <g class="cls-4">
    <text class="cls-2" transform="translate(347.82 205.43)">
      <tspan x="0" y="0">R</tspan>
    </text>
  </g>
</svg>
